ply
format ascii 1.0
comment meshmixer generated
element vertex 353
property float x
property float y
property float z
property float nx
property float ny
property float nz
property uchar red
property uchar green
property uchar blue
property uchar alpha
element face 726
property list uchar int vertex_indices
end_header
-0.04742228985 -0.0697959289 0.1009192914 -0.5198246241 -0.8187218308 0.2438788265 255 255 255 255
0.07679517567 -0.01583817787 0.1483814567 0.7495241165 -0.1247474924 0.6501166224 255 255 255 255
0.09189140797 0.02931073494 0.06787221134 0.8441854715 -0.2072401792 -0.4943706989 255 255 255 255
0.09786757827 0.02328744158 0.0713173002 0.669047296 -0.5558724999 -0.493337065 255 255 255 255
0.09786757827 0.04540568218 0.06787221134 0.5416411161 0.3892374635 -0.7450631261 255 255 255 255
0.09189140797 0.04626401514 0.06869465113 0.7551411986 0.348151058 -0.5554751754 255 255 255 255
0.09189140797 0.01779264584 0.08538807184 0.8915038109 -0.4519132674 -0.03154930845 255 255 255 255
0.09786757827 0.01925682276 0.09089472145 0.59967345 -0.7615807652 0.2457365245 255 255 255 255
0.09189140797 0.02735419944 0.1014474332 0.9831775427 -0.1761714965 0.04822321609 255 255 255 255
0.09786757827 0.0284523759 0.1020814776 0.6149404645 -0.2334329784 0.7532312274 255 255 255 255
0.09189140797 0.04405335337 0.1034640744 0.9726433158 0.07183843851 0.220916748 255 255 255 255
0.09786757827 0.04540569335 0.1029039249 0.5415536761 0.5513882041 0.6345791221 255 255 255 255
0.09189140797 0.0572572872 0.08538806438 0.9373531938 0.3482059538 0.01102770772 255 255 255 255
0.09786757827 0.05692378059 0.08538807184 0.8044669628 0.5939943194 -0.001917957328 255 255 255 255
0.09715303034 0.04846659675 0.07686430216 0.9981533289 -0.05006461963 0.03440082073 255 255 255 255
0.09707661718 0.03735821322 0.07164395601 0.999443233 -0.007277261 0.03256119415 255 255 255 255
0.09712055326 0.05071506277 0.08828691393 0.9973492622 -0.07168437541 -0.01248342916 255 255 255 255
0.09726995975 0.04689091817 0.09525433928 0.9992288351 -0.0280171968 -0.02750957943 255 255 255 255
0.09719526023 0.03629955277 0.09922757 0.9994620085 -0.00800585933 -0.03180523962 255 255 255 255
0.09712055326 0.0264290534 0.09377428889 0.9968543053 0.06819564849 -0.04038370773 255 255 255 255
0.09752280265 0.02363763377 0.08356231451 0.9872674346 0.1587132365 0.01063802745 255 255 255 255
0.09687155485 0.02640589327 0.07667115331 0.9995319247 0.02806497365 0.01217787899 255 255 255 255
0.09189140797 -0.01836275496 0.05481401458 0.9876310825 -0.02881817892 -0.154124409 255 255 255 255
0.09726995975 -0.02159723453 0.05648909882 0.9308373332 -0.1358004361 -0.3392640948 255 255 255 255
0.09726995975 -0.02603000589 0.06322031468 0.236665532 -0.9711853862 0.02807768062 255 255 255 255
0.09189140797 -0.0258955285 0.06322031468 0.9694424868 -0.2445847094 0.01896295324 255 255 255 255
0.09189140797 -0.01836275496 0.0716266185 0.933748126 -0.05754389241 0.3532748818 255 255 255 255
0.09726995975 -0.02070584148 0.07050903141 0.9667233825 -0.09707165509 0.2366917282 255 255 255 255
0.09726995975 -0.01242757775 0.068798922 0.5731250644 0.6374659538 0.5149415731 255 255 255 255
0.09189140797 -0.009982366115 0.06322031468 0.9482352734 0.3174918294 0.006983125582 255 255 255 255
0.09726995975 -0.01180989854 0.05752829835 0.8543501496 0.3965317011 -0.3359291553 255 255 255 255
0.09242926538 0.02240744606 0.06482955813 0.9447822571 -0.09316047281 0.3141777217 255 255 255 255
0.09308664501 0.02240744606 0.05378855765 0.9965978265 -0.06102961302 -0.05539125204 255 255 255 255
0.09296712279 0.05351347104 0.05378855765 0.9933947921 0.06470722705 -0.09476154298 255 255 255 255
0.09189140052 0.05351347104 0.06482955068 0.9918140769 0.002923530061 0.1276569664 255 255 255 255
0.09726995975 0.05351347104 0.06482955068 0.996878922 0.01053390652 0.07823988795 255 255 255 255
0.09265977144 0.01523602661 0.04560163245 0.9905243516 -0.1111203656 0.08070768416 255 255 255 255
0.09189140052 0.01523602661 0.02244392969 0.9749552011 -0.07738833874 -0.2085026503 255 255 255 255
0.09726995975 0.01523602661 0.02244392969 0.998052001 -0.05354903266 -0.03201133013 255 255 255 255
0.09296712279 0.03480802476 0.02244392969 0.9678089023 0.06249554455 -0.2438036203 255 255 255 255
0.09368426353 0.03480802476 0.04560163245 0.996999681 0.05754949525 0.05176581442 255 255 255 255
0.09296712279 0.04115771875 0.04261353984 0.9996874332 -0.01211809553 0.02186803147 255 255 255 255
0.09404283017 0.04115771875 0.02244392969 0.9982976317 -0.02231799066 -0.05388677865 255 255 255 255
0.09368426353 0.06491304189 0.02244392969 0.996920228 0.06412567198 -0.04514372349 255 255 255 255
0.09342813492 0.06491304189 0.04261353984 0.9985902905 0.04871169105 0.02108460106 255 255 255 255
0.09230514616 -0.01150738541 0.04560163245 0.9911900759 -0.1088711321 0.07542774081 255 255 255 255
0.09189140052 -0.01150738541 0.02244392969 0.9761180282 -0.1855316907 -0.113011241 255 255 255 255
0.09726995975 -0.01150738541 0.02244392969 0.9987396002 -0.04662359506 -0.01858730614 255 255 255 255
0.09278783202 0.008064609952 0.02244392969 0.9765180945 0.1448598504 -0.1594618261 255 255 255 255
0.0932360515 0.008064609952 0.04560163245 0.9933977127 0.06953144073 0.09124902636 255 255 255 255
0.09189140797 0.008081851527 0.05481401458 0.9926962852 -0.07313093543 -0.09594736248 255 255 255 255
0.09726995975 0.004847371951 0.05648909882 0.9308373332 -0.135800451 -0.3392641246 255 255 255 255
0.09726995975 0.0004145993153 0.06322031468 0.2981063724 -0.9238478541 -0.2400786877 255 255 255 255
0.09189140797 0.0005090709892 0.06650476158 0.985647738 -0.1320566088 0.1051648259 255 255 255 255
0.09726995975 0.00573876407 0.07050903141 0.8952073455 -0.1516364962 0.4190586805 255 255 255 255
0.09189140797 0.01245033089 0.07016914338 0.967438817 0.02574999258 0.251791656 255 255 255 255
0.09726995975 0.01401702501 0.068798922 0.6457825899 0.6573688984 0.3883696198 255 255 255 255
0.09189140797 0.01610045694 0.0619139336 0.8812612295 0.4715190828 -0.03237870708 255 255 255 255
0.09726995975 0.01463470608 0.05752829835 0.8671243787 0.3728963137 -0.3302175999 255 255 255 255
0.08905271441 -0.04020510241 0.04485855624 0.9157301188 0.01550767943 -0.4014945626 255 255 255 255
0.08905271441 -0.04268506169 0.03887987509 0.9611003995 0.008343625814 0.276073277 255 255 255 255
0.09167304635 -0.04731969535 0.04467732459 0.9866612554 0.06086693704 -0.1509794146 255 255 255 255
0.09171398729 -0.04606138542 0.0387076512 0.9774107337 -0.1749337912 0.1186021641 255 255 255 255
0.08905271441 -0.04873071238 0.04418459162 0.9555530548 -0.05658387393 -0.2893383205 255 255 255 255
0.08905271441 -0.04971127957 0.03649126366 0.9541787505 0.04452010244 0.295906812 255 255 255 255
0.09165485203 -0.05461790785 0.04018569365 0.9440351129 0.2814295888 -0.1720323861 255 255 255 255
0.09171398729 -0.05033189431 0.03584397584 0.9594444036 -0.2694002688 0.08300578594 255 255 255 255
0.08905271441 -0.05553853512 0.03900832683 0.994232893 0.03741944581 -0.1005024314 255 255 255 255
0.09067482501 -0.05241388828 0.0313112624 0.9850617051 -0.1709839702 -0.02044421062 255 255 255 255
0.09167304635 -0.05832919106 0.03246137872 0.9955549836 0.08908952028 -0.03054975159 255 255 255 255
0.08905271441 -0.05846713856 0.03097318672 0.9909989238 0.1327418983 0.01734112762 255 255 255 255
0.09090403467 -0.051794447 0.02638654038 0.9863006473 -0.1639746428 -0.0179807283 255 255 255 255
0.09145468473 -0.0572752431 0.02395679988 0.9946752191 0.1030441672 0.001750145224 255 255 255 255
0.08905271441 -0.05658671632 0.02263026871 0.9216669798 0.2981158197 0.2483082414 255 255 255 255
0.08905271441 -0.05044429749 0.02467124723 0.9706766009 -0.2201388627 -0.09657021612 255 255 255 255
0.09145468473 -0.05179068074 0.01737209968 0.9939881563 0.06570699811 0.08757944405 255 255 255 255
0.08905271441 -0.05049428344 0.01662839949 0.9208566546 0.1139205247 0.3728875518 255 255 255 255
0.08905271441 -0.04643038288 0.0216662176 0.9577507973 -0.07644728571 -0.2772530317 255 255 255 255
0.09148588032 -0.04361682013 0.01479787566 0.9999490976 -0.0100904908 0.00017519432 255 255 255 255
0.09171398729 -0.04314230755 0.02088024281 0.989274919 0.06620953977 -0.1301977634 255 255 255 255
0.08905271441 -0.04212414473 0.01487312187 0.9611988664 0.1228105798 0.2470107228 255 255 255 255
0.08905271441 -0.03901582956 0.02197855897 0.9542257786 -0.1307131648 -0.2690114975 255 255 255 255
0.09170216322 -0.03534879535 0.01705142111 0.9987798929 -0.02576359734 -0.04212997109 255 255 255 255
0.09171398729 -0.03823798895 0.02242478356 0.9544932842 0.2747251093 -0.11605452 255 255 255 255
0.08905271441 -0.03413376212 0.01792173274 0.9546245337 -0.02757262252 0.2965329587 255 255 255 255
0.08905271441 -0.03536036983 0.02557968348 0.9549889565 0.04035853222 -0.2938830853 255 255 255 255
0.09165485203 -0.02961165272 0.0234172605 0.9805069566 -0.186189577 0.06276593357 255 255 255 255
0.09168864042 -0.03494725004 0.02637560107 0.936850369 0.3453457355 -0.05520565435 255 255 255 255
0.08905271441 -0.02906001732 0.02480630577 0.9959957004 -0.03666454554 0.08153731376 255 255 255 255
0.09085915238 -0.03417021781 0.03108706884 0.9764246941 0.2137048393 0.03041419387 255 255 255 255
0.09148588032 -0.02822688967 0.03187427297 0.9962447286 -0.08658219874 8.016906213e-05 255 255 255 255
0.08905271441 -0.03266853094 0.04081624001 0.9189981222 -0.226820454 -0.3224824071 255 255 255 255
0.08905271441 -0.0379871279 0.03712742031 0.9511626959 0.1668756604 0.2596960664 255 255 255 255
0.09145468473 -0.03875168785 0.04451022297 0.9703497887 -0.07930456847 -0.2283244282 255 255 255 255
0.08905271441 -0.02851380594 0.03334105015 0.9185264707 -0.3605711758 -0.1621650755 255 255 255 255
0.08905271441 -0.0349824205 0.03311326727 0.9721758366 0.2333066761 0.02102801017 255 255 255 255
0.09153657407 -0.03163416684 0.03973742574 0.9961389899 -0.06576978415 -0.05815063789 255 255 255 255
0.09278783202 -0.05356477201 0.06845604628 0.9968907237 -0.04331308976 0.06582415104 255 255 255 255
0.09189140052 -0.05356476828 0.05351559073 0.9978811145 -0.04536040872 -0.04664499313 255 255 255 255
0.09726995975 -0.05356476828 0.05351559073 0.9748233557 -0.1165548861 -0.1900903732 255 255 255 255
0.09233961999 -0.03294694051 0.05351559073 0.9674594402 0.140866369 -0.2101876736 255 255 255 255
0.09189140052 -0.03294694051 0.06845604628 0.9836822748 0.1179217324 0.1358810663 255 255 255 255
0.09726995975 -0.03294694051 0.06845604628 0.9772076607 0.1380835325 0.161239177 255 255 255 255
0.09189140797 -0.03631532565 0.03596868739 0.9864740968 0.150954023 0.06388825923 255 255 255 255
0.09189140797 -0.04065219685 0.03880893439 0.9951826334 0.02649342641 0.094390966 255 255 255 255
0.09189140797 -0.04836091772 0.02230701409 0.9916996956 -0.1052356362 -0.07387272269 255 255 255 255
0.09189140797 0.07713437825 0.105637081 0.9846542478 0.1127670407 0.1331902742 255 255 255 255
0.09039736539 -0.01941552013 0.09872989357 0.9992035031 0.005039895419 -0.03958497569 255 255 255 255
0.09189140797 -0.07721602917 0.1057328731 0.987947464 -0.05533635244 0.1445604712 255 255 255 255
0.09189140797 -0.01941552013 0.09549278766 0.9988248348 0.02186403237 0.04325406253 255 255 255 255
0.09107647091 -0.01941552013 0.09101065248 0.9976946115 0.05789008737 -0.03541522473 255 255 255 255
0.09144319594 -0.0789084062 0.01058120653 0.6207526326 -0.01479775924 0.7838668227 255 255 255 255
0.09107647091 0.0789225623 0.01058120653 0.6282229424 0.04124424979 0.7769394517 255 255 255 255
0.09114438295 0.01001717802 0.09798286855 0.9989097714 -0.03271583468 0.03330007195 255 255 255 255
0.09061080217 0.01001717802 0.09230549634 0.9999616146 0.003856438212 0.007870913483 255 255 255 255
0.09189140797 0.01001717802 0.08852058649 0.9998006821 -0.01911962777 -0.005746349692 255 255 255 255
0.09039736539 -0.01941552013 0.08573169261 0.9997650981 -0.001197119476 -0.02163962275 255 255 255 255
0.09133113921 -0.01941552013 0.08005432039 0.9970561266 -0.003577380441 0.07659149915 255 255 255 255
0.09107647091 0.01001717802 0.08403844386 0.9997122288 -0.02333403192 -0.005565714091 255 255 255 255
0.09107647091 0.01001717802 0.07930730283 0.9987412095 -0.0185279958 0.04661260173 255 255 255 255
0.08890331537 0.07752993703 0.1060326397 0.7478632331 -0.442953825 -0.4944617748 255 255 255 255
0.08890331537 -0.07754749805 0.1058705151 0.751783669 0.5518727899 -0.3609124422 255 255 255 255
0.1008849442 0.07919148356 0.01058120281 0.4744730294 0.2354403287 0.8481999636 255 255 255 255
0.1113933027 -0.002173468238 0.01058120653 0.03169758245 0.005271983799 0.9994835854 255 255 255 255
0.1008849442 -0.0791773349 0.01058120281 0.4203662276 -0.1445833594 0.8957610726 255 255 255 255
0.12069121 -0.04572562873 0.01058691461 0.3594787717 -0.1195691749 0.9254611135 255 255 255 255
0.1221773699 -0.008421888575 0.01058120653 -0.1102196127 0.3617001772 0.9257562757 255 255 255 255
0.1246652752 0.03647969663 0.01059239358 0.367397517 0.1023456752 0.9244157076 255 255 255 255
0.1153893396 0.00718106376 0.01058120653 0.0177439414 -0.04690483212 0.9987417459 255 255 255 255
0.1273400187 0.004491502419 0.01070853323 0.4309116006 -0.1168730557 0.8947937489 255 255 255 255
0.05531572178 -0.09679817408 0.03378064185 0.5915033221 -0.771802187 0.2333349138 255 255 255 255
0.05117889494 -0.1024451554 0.003858454293 0.9522661567 -0.2824477255 0.115812324 255 255 255 255
0.05141129717 -0.1066347957 0.02330412529 0.4604392648 -0.6937761307 0.5537782311 255 255 255 255
0.05790428445 -0.1116353497 0.003858048003 0.4778161347 0.8527454734 0.2109903246 255 255 255 255
0.06304556131 -0.1111803576 0.01116908528 0.168184489 0.6103880405 0.7740415931 255 255 255 255
0.06494659185 -0.1086701676 0.003856625175 -0.8577027321 0.4197366834 0.2969295382 255 255 255 255
0.06790157408 -0.1034414545 0.01621358655 0.2245257646 -0.697850287 0.680142045 255 255 255 255
0.06785956025 -0.1012905911 0.003857681993 -0.8252670765 -0.532605052 0.1877927184 255 255 255 255
0.06307921559 -0.09584756196 0.02857370861 0.4037467539 -0.7498927116 0.5240701437 255 255 255 255
0.0593559891 -0.09516352415 0.003857982811 0.1273663193 -0.9821004272 0.1387681067 255 255 255 255
0.06159604341 -0.098516725 0.003857999109 -0.05051137879 -0.6108188033 0.7901576161 255 255 255 255
0.05443152785 -0.1023131013 0.003857999109 0.3877222836 -0.05915913731 0.9198758602 255 255 255 255
0.0600011982 -0.1089675352 0.003857999109 0.3814346492 0.7480024695 0.5431389213 255 255 255 255
-0.05617417395 -0.09629376978 0.03378064185 -0.3853905797 -0.8704584837 0.3062289655 255 255 255 255
-0.06313299388 -0.09553468227 0.003858454293 0.231364131 -0.9660242796 0.1151857451 255 255 255 255
-0.06665104628 -0.09784555435 0.02322774567 -0.3548666239 -0.7510649562 0.556750536 255 255 255 255
-0.06772922724 -0.1059541404 0.003858048003 0.9739108086 0.01104991604 0.2266620696 255 255 255 255
-0.06476762146 -0.110177286 0.0111594433 0.7037705779 0.3192965984 0.6346310973 255 255 255 255
-0.06172947213 -0.1105221435 0.003856527619 0.2380780429 0.9131388068 0.330902338 255 255 255 255
-0.05563445389 -0.1105150878 0.01621360146 -0.4728559554 -0.5546320081 0.6846828461 255 255 255 255
-0.05379275978 -0.1094032824 0.003857681993 -0.87993747 0.4531209767 0.1427984983 255 255 255 255
-0.05147025362 -0.1024954319 0.0287036933 -0.6319205761 -0.6312610507 0.4496507943 255 255 255 255
-0.05273835361 -0.0989754349 0.003857982811 -0.7794706225 -0.5957782865 0.1935814768 255 255 255 255
-0.05523747206 -0.1008956954 0.003857999109 -0.787599206 -0.5209876299 0.329027921 255 255 255 255
-0.06315033883 -0.09907754511 0.003857999109 0.5466026664 -0.327976346 0.7704914212 255 255 255 255
-0.05722288042 -0.1083513722 0.003857999109 -0.3250560462 0.5781599283 0.7483780384 255 255 255 255
-0.1114782989 0.0005035974318 0.03378708288 -0.9395232797 -0.1054282933 0.3258540928 255 255 255 255
-0.113999851 0.004890870769 0.003857600736 -0.8119488358 -0.5641254187 0.1500053108 255 255 255 255
-0.1183789894 0.008972313255 0.02284908481 -0.8431301117 -0.112613827 0.5257848501 255 255 255 255
-0.1228872389 0.007853237912 0.003857690142 0.4186990261 -0.8879691958 0.1902679056 255 255 255 255
-0.1277137846 0.00103039667 0.01126656681 -0.5624832511 -0.2511579096 0.7877387404 255 255 255 255
-0.1275928915 -0.002052193973 0.003858177923 0.8756901026 0.3090493679 0.3710193038 255 255 255 255
-0.1238997802 -0.006904595532 0.01575249247 -0.7291319966 0.1267947704 0.6725248098 255 255 255 255
-0.1206089556 -0.008122235537 0.003857909702 -0.04892705008 0.9921664596 0.1149426252 255 255 255 255
-0.1145098284 -0.00666506635 0.02869103104 -0.8766518235 0.1779171228 0.4470202029 255 255 255 255
-0.1120873615 -0.003803588683 0.00385799096 -0.9052481055 0.3911625147 0.1658847481 255 255 255 255
-0.1186045781 0.005239006132 0.003857999109 0.2622413337 -0.7831100225 0.5638866425 255 255 255 255
-0.1195160374 -0.005740828812 0.003857999109 -0.1348397136 0.600908041 0.7878628373 255 255 255 255
-0.1245538145 0.00135693734 0.003857999109 0.717920661 -0.1930436939 0.6688228846 255 255 255 255
-0.05530051887 0.09681232274 0.03378064185 -0.6148774624 0.7698740959 0.1709374636 255 255 255 255
-0.0511636883 0.102459304 0.003858454293 -0.9506221414 0.2819592357 0.1296785176 255 255 255 255
-0.05139609054 0.1066489518 0.02330412902 -0.47604689 0.6759605408 0.5625448227 255 255 255 255
-0.05788907409 0.1116494983 0.003858048003 -0.4819311202 -0.8515370488 0.2064630836 255 255 255 255
-0.06303034723 0.1111945212 0.01116908994 -0.2094389796 -0.6530383229 0.7277886271 255 255 255 255
-0.06540514529 0.1092065349 0.003857974662 0.7922840118 -0.576793313 0.1989862323 255 255 255 255
-0.06788635999 0.1034556031 0.01621359028 -0.338434279 0.6794816256 0.6509737968 255 255 255 255
-0.06784435362 0.1013047397 0.003857681993 0.8260068893 0.5384909511 0.1665537804 255 255 255 255
-0.06302323937 0.09583946317 0.0287036784 -0.3850660622 0.7757099867 0.4999981225 255 255 255 255
-0.05934076756 0.0951776728 0.003857982811 -0.1277491003 0.9847352505 0.1182229519 255 255 255 255
-0.05606631562 0.09982968867 0.003857999109 -0.4178160727 0.5559878349 0.718545258 255 255 255 255
-0.05605440214 0.1075451821 0.003857999109 -0.4892556965 -0.6214618087 0.6118938327 255 255 255 255
-0.06231825799 0.09907655418 0.003857999109 0.3171328604 0.435295105 0.8425822854 255 255 255 255
-0.06460215151 0.1060489267 0.003857999109 0.5715984106 -0.1611804217 0.8045471907 255 255 255 255
0.05909939483 0.0949344039 0.03296448663 0.4881274104 0.7272775769 0.4824924767 255 255 255 255
0.06314820796 0.09554883093 0.003858454293 -0.3854177296 0.9113157988 0.1447643638 255 255 255 255
0.0676619634 0.1016421318 0.01826816238 0.05079466477 0.8263761401 0.5608229041 255 255 255 255
0.06774443388 0.1059682891 0.003858048003 -0.9543347955 -0.06364244968 0.2918812931 255 255 255 255
0.06478422135 0.110190317 0.01116811857 -0.4478106499 -0.2231149971 0.8658437133 255 255 255 255
0.06187073141 0.1112558991 0.003857974662 -0.1030586138 -0.9704136252 0.2183490992 255 255 255 255
0.05564966798 0.1105292365 0.01621360146 0.4836827219 0.5667523742 0.6669653654 255 255 255 255
0.05380797014 0.1094174311 0.003857681993 0.8727117181 -0.4427725673 0.2057345062 255 255 255 255
0.0514851138 0.1025070027 0.02869318239 0.5052777529 0.7152740359 0.482780993 255 255 255 255
0.05275356397 0.09898958355 0.003857982811 0.7615134716 0.6378106475 0.115303278 255 255 255 255
0.05542538688 0.1004625484 0.003857999109 0.6929528713 0.2917959094 0.659296155 255 255 255 255
0.06237717718 0.09900085628 0.003857999109 -0.4980188012 0.6326533556 0.5930657983 255 255 255 255
0.0558809191 0.1067431495 0.003857999109 0.4182471633 -0.4939709008 0.7622742653 255 255 255 255
0.06383380294 0.1075819731 0.003857999109 -0.324537307 -0.5284317136 0.784496963 255 255 255 255
0.112234965 -0.004205432255 0.003857999109 0.7478929162 0.5997928381 0.2844374776 255 255 255 255
0.1209029406 -0.008038069122 0.003857999109 -0.1177986786 0.8711905479 0.476603061 255 255 255 255
0.1275327951 -0.00213692477 0.003857999109 -0.8432773352 0.2773275077 0.4604049921 255 255 255 255
0.1247417256 0.006288525648 0.003857999109 -0.515202105 -0.7275137305 0.4530899525 255 255 255 255
0.1145961955 0.00702436408 0.003857999109 0.4973118901 -0.8306099772 0.2505353987 255 255 255 255
0.1145008281 -0.0004617130908 0.003857999109 0.7083187699 0.1447772831 0.6908864379 255 255 255 255
0.1186197773 -0.005224860739 0.003857999109 0.04069878533 0.4650688767 0.8843384981 255 255 255 255
0.1195312366 0.005754974205 0.003857999109 0.00188811007 -0.6576992869 0.7532781959 255 255 255 255
0.1245690137 -0.00134279253 0.003857999109 -0.9120674133 0.2452833056 0.3285865486 255 255 255 255
0.05390786007 -0.1035034359 -0.0006241340307 0.003832654096 -0.003761444474 -0.9999855757 255 255 255 255
0.06383380294 -0.1075678244 -0.0006241340307 -0.01072367281 0.08654981852 -0.9961898327 255 255 255 255
0.06200395525 -0.09868568927 -0.0006241340307 -0.004357567523 -0.01714141481 -0.9998435974 255 255 255 255
-0.06048239395 -0.09797244519 -0.0006241340307 -0.001156169688 -0.002935904078 -0.9999949932 255 255 255 255
-0.06460215151 -0.1060347706 -0.0006241340307 0.09177499264 0.07655049115 -0.9928330183 255 255 255 255
-0.05467795581 -0.106434226 -0.0006241340307 -0.01058204379 -0.01143788919 -0.9998785853 255 255 255 255
-0.1146681085 -0.002524256473 -0.0006241340307 -0.002197812311 0.0004790271923 -0.9999974966 255 255 255 255
-0.1195160374 0.005754973739 -0.0006241340307 -0.01279541291 -0.009408655576 -0.9998738766 255 255 255 255
-0.1240358949 -0.003461132292 -0.0006241340307 0.456828475 0.2957734466 -0.8389433026 255 255 255 255
-0.05541018024 0.1004625484 -0.0006241340307 -0.002739452757 0.005362201948 -0.9999818802 255 255 255 255
-0.05586571246 0.1067431495 -0.0006241340307 -0.03816393018 -0.03920127079 -0.9985022545 255 255 255 255
-0.0638185963 0.1075819731 -0.0006241340307 0.03958893195 -0.1004284769 -0.9941563606 255 255 255 255
-0.06236196682 0.09900085628 -0.0006241340307 0.004572862294 0.02370083518 -0.9997086525 255 255 255 255
0.05608151853 0.09982968867 -0.0006241340307 0.0009008467896 0.003617008915 -0.9999930263 255 255 255 255
0.06233347207 0.09907655418 -0.0006241340307 0.01051600929 0.01736058295 -0.9997940063 255 255 255 255
0.06461735815 0.1060489267 -0.0006241340307 -0.08241474628 0.0006805632729 -0.9965978861 255 255 255 255
0.05606961623 0.1075451821 -0.0006241340307 0.06892577559 -0.04172189161 -0.9967489839 255 255 255 255
0.1146833077 0.002538401634 -0.0006241340307 0.001957586501 8.548167534e-05 -0.9999980927 255 255 255 255
0.1195312366 -0.005740828346 -0.0006241340307 0.01436129678 0.00828309264 -0.9998625517 255 255 255 255
0.1240510941 0.003475277452 -0.0006241340307 -0.5031700134 -0.3239642978 -0.8011660576 255 255 255 255
0.09263843298 0.07774349302 0.1062461808 0.6786378622 -0.3590031862 -0.6407552958 255 255 255 255
0.09263843298 -0.07761952281 0.1064356714 0.6677901745 0.2020962536 -0.7163891196 255 255 255 255
0.04110396281 -0.08297359943 0.06793122739 0.2103185952 -0.9440710545 0.2539604008 255 255 255 255
0.09266677499 -0.07983227074 0.0182332322 0.3364396691 -0.9034789801 0.2655824721 255 255 255 255
0.09266760945 0.07984812558 0.01824040152 0.3121270239 0.930077374 0.1937338114 255 255 255 255
0.09263839573 0.07951980084 0.1088736653 0.1578736901 0.8032912016 0.5742813945 255 255 255 255
0.09263832867 -0.07957081497 0.108786501 0.1170287058 -0.8096108437 0.5751821995 255 255 255 255
-0.006754028611 0.0781320706 0.1484282017 -0.00282266154 0.8959875107 0.4440703094 255 255 255 255
-0.0263609197 0.07369056344 0.1483429372 -0.3397577107 0.8991918564 0.2757149339 255 255 255 255
-0.07677260786 -0.01583944634 0.1483851373 -0.7920452356 -0.1571919173 0.5898771286 255 255 255 255
-0.06718445569 -0.04078375176 0.1483413428 -0.7674361467 -0.4291305244 0.4763284326 255 255 255 255
-0.06633897871 0.04193859175 0.1484236568 -0.7602171302 0.4959018528 0.419703722 255 255 255 255
0.01794447564 0.08156507462 0.1019068435 0.1077399924 0.9776597023 0.1804815829 255 255 255 255
0.07776393741 0.01258544624 0.1483826488 0.8253095746 0.2173201591 0.5211871862 255 255 255 255
0.04904075339 0.08292207122 0.06144201756 0.1925224662 0.9650707245 0.1776894778 255 255 255 255
0.08214056492 0.007624947 0.1099374294 0.702362299 0.07981378585 0.7073308825 255 255 255 255
0.09227381647 -0.1005856544 0.0001433253055 0.6571277976 -0.7459295392 0.1084996909 255 255 255 255
0.02925781347 -0.1334291995 0.001326936181 0.2166506648 -0.7782406807 0.5894098282 255 255 255 255
0.02822542563 -0.1227181628 0.01387368049 0.2098196745 -0.8118644953 0.5448409915 255 255 255 255
-0.03747336939 -0.09347372502 0.05354798213 -0.2833873332 -0.853471756 0.4373529553 255 255 255 255
-0.05626308545 -0.08252687007 0.05478531867 -0.5115119219 -0.7331036329 0.4482350051 255 255 255 255
0.06569606066 0.05151889101 0.1099399626 0.6764213443 0.4881878793 0.5514768958 255 255 255 255
-0.04745532572 0.07006084919 0.1002405658 -0.5483722687 0.805932343 0.2230716348 255 255 255 255
-0.03748726845 -0.1309160739 0.0008807122358 -0.2129120827 -0.8025195003 0.5573427081 255 255 255 255
-0.09969129413 -0.01426633168 0.05354705453 -0.8859312534 -0.147617951 0.4396984875 255 255 255 255
-0.09922175109 0.009499558248 0.05597138405 -0.9007608294 0.1051917225 0.4213842154 255 255 255 255
0.03849907964 -0.07280040532 0.110087052 0.3942538798 -0.7494695783 0.5318451524 255 255 255 255
-0.1214166433 -0.03526211157 0.01340939198 -0.7958049178 -0.2129641473 0.5668693185 255 255 255 255
-0.120434992 0.0360292308 0.01413639355 -0.7881661057 0.2398091704 0.5668207407 255 255 255 255
-0.090267241 0.04329388216 0.05489338189 -0.8156745434 0.3778664768 0.4380547106 255 255 255 255
-0.1045389622 0.06984006613 0.01412083674 -0.7155175209 0.4119437337 0.5642136335 255 255 255 255
-0.07159243524 0.06975010782 0.05555991456 -0.6351613402 0.6289017797 0.4483889341 255 255 255 255
-0.1024864838 0.08990639448 0.001332992921 -0.5662908554 0.5971361399 0.5681048036 255 255 255 255
-0.0433719866 0.09123479575 0.05346173421 -0.365095228 0.8308048248 0.4200819433 255 255 255 255
0.01798288338 -0.08091375977 0.1048514396 0.1260908842 -0.963994205 0.2341286242 255 255 255 255
-0.07774241269 0.01257776935 0.1483867466 -0.89364779 0.09905136377 0.4377013147 255 255 255 255
-0.02842234261 -0.07297255844 0.1482581347 -0.3104816079 -0.7968791127 0.5182517767 255 255 255 255
-0.06584084034 0.1196247637 0.001323050121 -0.3989940286 0.716139257 0.5726677775 255 255 255 255
-0.02924258076 0.1334433407 0.00132694433 -0.2166508138 0.7782409191 0.5894094706 255 255 255 255
-0.02821019292 0.1227323264 0.01387367677 -0.1947893351 0.8077266812 0.5564483404 255 255 255 255
0.004078891594 0.1364035904 8.3887855e-05 0.02470917813 0.9513689876 -0.3070609868 255 255 255 255
0.02475060523 0.09713049233 0.05511954427 0.189378351 0.861399591 0.4713030159 255 255 255 255
0.03750244528 0.13093023 0.0008807122358 0.2548264563 0.7894791365 0.55837816 255 255 255 255
-0.129125908 -0.04471836612 0.001401283778 -0.7712783813 -0.2558625937 0.5828070045 255 255 255 255
-0.09012080729 -0.04358378425 0.05489340425 -0.8082125187 -0.372299403 0.4562736452 255 255 255 255
0.0654778257 -0.05016608536 0.1099371836 0.6043579578 -0.5083571076 0.613452971 255 255 255 255
-0.01244402304 -0.08345551789 0.1009347141 -0.1496563256 -0.9628152847 0.224921599 255 255 255 255
-0.115947254 -0.07154557854 0.001064739889 -0.7313238382 -0.4063820541 0.5477399826 255 255 255 255
-0.1045863554 -0.08741951734 0.001268441789 -0.5700550079 -0.6140720844 0.5458505154 255 255 255 255
-0.02475701459 -0.1343167126 -9.850568313e-05 -0.009119619615 -0.06772788614 -0.997662127 255 255 255 255
0.1109583825 -0.07989221066 0.001264246763 0.65560776 -0.4586479068 0.5998504758 255 255 255 255
0.1343816817 0.02505510487 0.001291091554 0.8343164325 0.1668974757 0.5254153609 255 255 255 255
0.02477223799 0.1343308538 -9.850568313e-05 0.01282957662 0.06058395654 -0.9980806708 255 255 255 255
-0.1217240989 0.06221853197 0.001286953455 -0.7233708501 0.3723628819 0.5814469457 255 255 255 255
0.02067298442 0.07563746721 0.148442179 0.2163889408 0.804828763 0.5526540875 255 255 255 255
-0.04753600061 -0.06239214167 0.1484479904 -0.5634841323 -0.6281244755 0.5366053581 255 255 255 255
0.02168934047 -0.07554274797 0.1483321339 0.2027136683 -0.8906936049 0.4069054425 255 255 255 255
0.04736051336 -0.06250508875 0.1484591663 0.5275084972 -0.6675895452 0.5254131556 255 255 255 255
0.02773736976 0.0777656883 0.1088834777 0.3651247621 0.777762711 0.5116337538 255 255 255 255
0.06708437204 -0.04104010388 0.1483230442 0.7681215405 -0.4455597997 0.4598540366 255 255 255 255
0.06650497019 0.04165023193 0.1484334916 0.6321412921 0.3896576464 0.6697494388 255 255 255 255
0.04644911364 0.06350773573 0.1483078599 0.5203745961 0.7265768051 0.4486607015 255 255 255 255
-0.01227233279 0.08350251615 0.1008668542 -0.1524568349 0.9558124542 0.2513552308 255 255 255 255
-0.04645415023 0.06341509521 0.1483360678 -0.4994301498 0.6300081015 0.5946926475 255 255 255 255
-0.08230031282 0.01944847777 0.1003381535 -0.945925355 0.2290171832 0.2297310531 255 255 255 255
-0.06942592561 -0.04742086306 0.1006450504 -0.791437149 -0.5660470128 0.2306903154 255 255 255 255
-0.06924044341 0.04762687162 0.1007326245 -0.7961050868 0.5490426421 0.2544972599 255 255 255 255
-0.08247517049 -0.01849919744 0.1004832909 -0.9557245374 -0.1822894365 0.2310004532 255 255 255 255
0.07881747931 -0.02320409752 0.1099366918 0.8198167682 -0.2600246668 0.5101839304 255 255 255 255
-0.007250271738 -0.07806490362 0.1484633237 -0.04620615765 -0.8877043724 0.4580894709 255 255 255 255
0.006395951379 -0.1001060531 0.05642795563 0.02212784067 -0.881717205 0.4712590575 255 255 255 255
-0.007642338052 0.099830769 0.05489340425 -0.08676019311 0.8757730126 0.4748624265 255 255 255 255
-0.07326805592 -0.06821296364 0.05489338934 -0.6720096469 -0.5817124844 0.4582724571 255 255 255 255
-0.004063700791 -0.1363894343 8.3887855e-05 0.001704593073 -0.8892976046 -0.4573257864 255 255 255 255
0.02966082282 -0.1326400042 -0.0004874628503 0.02445214242 -0.1112712175 -0.9934892058 255 255 255 255
-0.1102885231 -0.07964614779 -0.0004541954258 -0.02661244199 -0.02059058659 -0.9994337559 255 255 255 255
-0.1358679682 -0.01394594554 -1.078443074e-05 -0.9745264649 -0.1156719923 -0.1921408772 255 255 255 255
-0.1109592021 0.07872329652 -0.0004547238641 -0.03999042511 0.02675375901 -0.9988418221 255 255 255 255
0.108530961 0.08313452452 1.110116773e-05 0.2742261291 0.253578335 -0.9276303649 255 255 255 255
0.1293042004 0.04295149818 -0.0003783356515 0.07618288696 0.03447899967 -0.9964975715 255 255 255 255
-0.06581442803 0.1188866422 -0.0005227708607 -0.06530166417 0.1150521636 -0.9912106991 255 255 255 255
-0.02964562736 0.1326541454 -0.0004874628503 -0.0213625133 0.1029339656 -0.9944587946 255 255 255 255
0.1258855313 -0.05299489573 0.000270078046 0.5361399055 -0.2258901149 -0.8133435249 255 255 255 255
0.1333140284 -0.02972726896 -8.975794481e-05 0.5358774066 -0.1358670145 -0.8332920074 255 255 255 255
-0.1292889863 -0.04293738678 -0.0003783356515 -0.09108161181 -0.03047771007 -0.9953769445 255 255 255 255
-0.09148537368 0.1012574956 0.0001145699644 -0.1073043868 0.1228716448 -0.9866044521 255 255 255 255
0.06651235372 0.1196066737 8.800969954e-05 0.4817367494 0.8555105329 -0.1898193806 255 255 255 255
0.09138959646 0.1013709307 0.0001269761415 0.6578985453 0.7477570772 0.08960390091 255 255 255 255
0.1218360439 0.06202107295 0.001265311847 0.7292910814 0.3652047515 0.5785844922 255 255 255 255
0.1363543123 -0.009263586253 0.0008675743593 0.7657026052 -0.03626312688 0.6421716809 255 255 255 255
0.06582963467 -0.1188724935 -0.0005227708607 0.0571777001 -0.1004320979 -0.9932996035 255 255 255 255
0.06585603952 -0.1196106076 0.001323050121 0.3799726665 -0.7407193184 0.5540357828 255 255 255 255
-0.06656419486 -0.1192760095 0.001140599721 -0.4113657176 -0.7039628625 0.5789771676 255 255 255 255
-0.06526438147 -0.1191417649 -0.0005275593139 -0.05653014407 -0.1160090268 -0.9916381836 255 255 255 255
-0.09137439728 -0.1013567597 0.0001269761415 -0.6075026989 -0.7217314243 -0.3317291141 255 255 255 255
0.1109744012 -0.07870913297 -0.0004547238641 0.03404395655 -0.02169322036 -0.9991848469 255 255 255 255
0.135155037 0.01328352839 -0.0004874221922 0.1094910726 0.004875705577 -0.9939758182 255 255 255 255
-0.1306347847 0.04006355256 -4.186490696e-05 -0.6018949151 0.1611325443 -0.7821501493 255 255 255 255
-0.1363936961 0.009778007865 0.0003191742871 -0.9806318879 0.1237704977 0.1517959237 255 255 255 255
0.002710420173 0.05684269965 0.1484052241 -0.0002643521002 -0.00101675652 0.9999994636 255 255 255 255
0.0436364226 -0.03238006681 0.1483861804 0.0004245484597 0.0002459280659 0.9999998808 255 255 255 255
-0.0266726166 0.02165146358 0.1483913362 -1.963270734e-05 -5.579849312e-05 1 255 255 255 255
0.05226448923 0.02192506194 0.148396641 -0.0003281388781 -0.0006493628607 0.9999997616 255 255 255 255
-0.02119842358 0.05878174677 0.1483827084 -0.001464989618 0.0005681859911 0.9999987483 255 255 255 255
-0.05895587802 0.0001728279749 0.1483864188 9.241357475e-06 -0.0003065056808 0.9999999404 255 255 255 255
0.0137419356 -0.03623699024 0.1483800858 -0.0002476599184 -0.0002475653018 0.9999999404 255 255 255 255
-0.05084514618 0.01992146857 0.1483940482 0.0002689053072 -0.00048201764 0.9999998212 255 255 255 255
0.02626348101 -0.01672198623 0.1483854651 -8.493030327e-05 -0.0001607799495 1 255 255 255 255
0.03874510899 0.038996391 0.1483857185 -0.0002898131206 0.001178876963 0.9999992847 255 255 255 255
-0.006689278875 0.02242695354 0.1483924836 -2.365331238e-05 -0.0001211251438 1 255 255 255 255
-0.0515727587 -0.01792037673 0.1483777016 -0.0002743299119 -0.0005801224615 0.9999998212 255 255 255 255
0.02416207083 0.05400224403 0.1483874917 0.001766307163 -0.0004045624228 0.9999983311 255 255 255 255
0.00796052441 0.01105023362 0.148390606 -9.150224287e-06 -0.0001809485839 1 255 255 255 255
-0.01808282733 -0.04252628237 0.1483715922 0.0007250019698 -0.001233165036 0.9999989867 255 255 255 255
-0.0381336771 0.001954919426 0.1483871043 -2.331162432e-05 -0.0003191753349 0.9999999404 255 255 255 255
-0.01283479203 0.0393387042 0.1483929753 -0.0002696281299 -1.227021221e-05 0.9999999404 255 255 255 255
0.02571016178 -0.05319781229 0.1483844221 -0.001590467524 -0.0002939531405 0.9999986887 255 255 255 255
-0.0145628266 0.004538890906 0.1483885348 -3.323530836e-05 -0.0002280887566 1 255 255 255 255
0.04737308994 -0.001757078106 0.1483879983 0.0001070218714 -0.0001692806545 1 255 255 255 255
0.01215139963 0.03450749069 0.148393333 0.000174401197 -0.0001117464271 1 255 255 255 255
0.001360602793 -0.05969814956 0.14836514 -0.001006015344 0.0004701781145 0.999999404 255 255 255 255
-0.04212676361 -0.0361125581 0.1483844221 -0.0004772810498 0.001072099782 0.9999992847 255 255 255 255
-0.03739387169 0.04091591761 0.1483873576 0.0002118871198 0.0008638470317 0.9999995828 255 255 255 255
-0.02687223256 -0.0171798002 0.1483826935 8.216874448e-06 -0.0002422491525 1 255 255 255 255
0.001935002161 -0.01374568138 0.1483844072 -7.120834925e-05 -0.000288288662 0.9999999404 255 255 255 255
0.02308144048 -0.0004896887694 0.1483886689 -1.39450276e-05 -0.0001884958765 1 255 255 255 255
0.03043946996 0.01758754626 0.1483912021 -2.684862375e-05 -3.334766006e-05 1 255 255 255 255
3 3 2 4 
3 4 2 5 
3 2 3 6 
3 3 7 6 
3 6 7 8 
3 7 9 8 
3 8 9 10 
3 9 11 10 
3 10 11 12 
3 11 13 12 
3 12 13 4 
3 12 4 5 
3 14 16 17 
3 14 17 15 
3 15 17 18 
3 15 18 21 
3 21 18 19 
3 21 19 20 
3 4 15 3 
3 3 15 21 
3 3 21 20 
3 3 20 7 
3 20 19 7 
3 7 19 9 
3 19 18 9 
3 9 18 11 
3 11 18 17 
3 11 17 13 
3 13 17 16 
3 16 14 13 
3 13 14 4 
3 14 15 4 
3 23 22 30 
3 22 23 24 
3 22 24 25 
3 25 24 26 
3 24 27 26 
3 27 28 26 
3 26 28 29 
3 29 28 30 
3 29 30 22 
3 30 28 27 
3 30 27 23 
3 23 27 24 
3 34 31 35 
3 33 34 35 
3 31 32 35 
3 35 32 33 
3 36 37 38 
3 37 39 38 
3 36 38 40 
3 40 38 39 
3 41 42 44 
3 44 42 43 
3 45 46 47 
3 46 48 47 
3 45 47 49 
3 49 47 48 
3 51 50 58 
3 50 51 52 
3 50 52 53 
3 52 54 53 
3 53 54 55 
3 54 56 55 
3 55 56 57 
3 57 56 58 
3 57 58 50 
3 58 56 54 
3 58 54 51 
3 51 54 52 
3 61 60 59 
3 62 63 64 
3 64 63 65 
3 66 67 68 
3 68 67 69 
3 68 70 71 
3 71 70 72 
3 73 75 74 
3 76 78 77 
3 79 80 81 
3 81 80 82 
3 83 84 85 
3 85 84 86 
3 87 88 89 
3 89 88 90 
3 91 93 92 
3 94 96 95 
3 97 98 99 
3 98 100 99 
3 101 97 102 
3 100 101 102 
3 97 99 102 
3 102 99 100 
3 92 104 103 
3 92 93 104 
3 95 103 89 
3 95 96 103 
3 85 87 83 
3 85 86 87 
3 81 83 79 
3 81 82 83 
3 77 79 105 
3 77 78 79 
3 74 105 71 
3 74 75 105 
3 64 66 62 
3 64 65 66 
3 60 62 104 
3 60 61 62 
3 107 8 108 
3 108 8 10 
3 108 10 106 
3 108 97 109 
3 109 97 110 
3 97 108 98 
3 98 108 111 
3 98 111 69 
3 50 49 36 
3 36 49 48 
3 36 48 37 
3 37 48 82 
3 37 82 112 
3 112 82 78 
3 112 78 111 
3 12 34 106 
3 106 34 44 
3 106 44 112 
3 112 44 43 
3 112 43 42 
3 98 61 100 
3 61 93 100 
3 79 104 105 
3 104 62 105 
3 98 65 61 
3 105 62 71 
3 71 62 66 
3 98 69 65 
3 71 66 68 
3 69 111 72 
3 75 72 111 
3 111 78 75 
3 82 48 46 
3 104 79 103 
3 79 83 103 
3 22 96 45 
3 46 86 82 
3 103 83 89 
3 83 87 89 
3 90 86 46 
3 45 96 90 
3 100 93 96 
3 100 96 22 
3 107 108 109 
3 113 109 114 
3 113 114 6 
3 107 113 8 
3 113 6 8 
3 97 101 110 
3 114 115 6 
3 110 101 116 
3 116 101 117 
3 116 117 118 
3 115 118 6 
3 117 26 53 
3 117 53 119 
3 119 53 55 
3 117 101 26 
3 118 119 6 
3 22 25 100 
3 100 25 101 
3 119 55 6 
3 57 31 55 
3 55 31 2 
3 55 2 6 
3 31 57 32 
3 32 57 50 
3 32 50 36 
3 32 36 40 
3 49 50 45 
3 45 50 22 
3 22 50 29 
3 50 53 29 
3 29 53 26 
3 46 45 90 
3 112 42 39 
3 39 42 41 
3 39 41 40 
3 40 41 33 
3 40 33 32 
3 41 44 33 
3 33 44 34 
3 39 37 112 
3 34 5 2 
3 34 2 31 
3 101 25 26 
3 106 10 12 
3 34 12 5 
3 118 117 119 
3 110 116 115 
3 115 116 118 
3 109 110 114 
3 115 114 110 
3 109 113 107 
3 91 96 93 
3 91 92 96 
3 96 92 103 
3 94 90 96 
3 94 95 90 
3 90 95 89 
3 88 86 90 
3 88 87 86 
3 84 82 86 
3 84 83 82 
3 80 78 82 
3 80 79 78 
3 76 75 78 
3 76 77 75 
3 75 77 105 
3 73 72 75 
3 73 74 72 
3 72 74 71 
3 70 69 72 
3 70 68 69 
3 67 65 69 
3 67 66 65 
3 63 61 65 
3 63 62 61 
3 59 93 61 
3 59 60 93 
3 93 60 104 
3 106 112 120 
3 106 120 108 
3 108 120 121 
3 121 111 108 
3 111 123 112 
3 112 123 128 
3 111 124 125 
3 111 125 123 
3 123 125 126 
3 126 125 129 
3 127 128 129 
3 128 127 112 
3 112 127 122 
3 139 130 131 
3 131 130 132 
3 131 132 133 
3 133 132 134 
3 133 134 135 
3 135 134 136 
3 135 136 137 
3 137 136 138 
3 137 138 139 
3 139 138 130 
3 140 139 141 
3 141 139 131 
3 141 131 133 
3 139 140 137 
3 137 140 135 
3 135 142 133 
3 133 142 141 
3 152 143 144 
3 144 143 145 
3 144 145 146 
3 146 145 147 
3 146 147 148 
3 148 147 149 
3 148 149 150 
3 150 149 151 
3 150 151 152 
3 152 151 143 
3 153 152 154 
3 154 152 144 
3 154 144 146 
3 153 155 152 
3 152 155 150 
3 150 155 148 
3 146 148 154 
3 165 156 157 
3 157 156 158 
3 157 158 159 
3 159 158 160 
3 159 160 161 
3 161 160 162 
3 161 162 163 
3 163 162 164 
3 163 164 165 
3 165 164 156 
3 166 157 159 
3 157 167 165 
3 165 167 163 
3 163 167 161 
3 161 167 168 
3 161 168 159 
3 159 168 166 
3 178 169 170 
3 170 169 171 
3 170 171 172 
3 172 171 173 
3 172 173 174 
3 174 173 175 
3 174 175 176 
3 176 175 177 
3 176 177 178 
3 178 177 169 
3 179 178 170 
3 179 170 180 
3 180 170 172 
3 179 181 178 
3 178 181 176 
3 176 181 182 
3 176 182 174 
3 174 182 172 
3 172 182 180 
3 192 183 184 
3 184 183 185 
3 184 185 186 
3 186 185 187 
3 186 187 188 
3 188 187 189 
3 188 189 190 
3 190 189 191 
3 190 191 192 
3 192 191 183 
3 193 192 184 
3 193 184 194 
3 194 184 186 
3 193 195 192 
3 192 195 190 
3 190 195 196 
3 190 196 188 
3 188 196 186 
3 186 196 194 
3 123 197 201 
3 197 123 126 
3 197 126 198 
3 198 126 199 
3 126 129 199 
3 199 129 200 
3 200 129 201 
3 129 128 201 
3 201 128 123 
3 202 201 197 
3 202 197 203 
3 203 197 198 
3 202 204 201 
3 201 204 200 
3 200 204 199 
3 199 204 205 
3 199 205 203 
3 199 203 198 
3 141 206 140 
3 140 206 208 
3 141 142 206 
3 206 142 207 
3 142 135 207 
3 207 135 208 
3 135 140 208 
3 154 209 153 
3 153 209 211 
3 209 154 210 
3 210 154 148 
3 210 148 155 
3 210 155 211 
3 211 155 153 
3 212 157 213 
3 157 166 213 
3 213 166 168 
3 213 168 214 
3 168 167 214 
3 214 167 212 
3 212 167 157 
3 179 215 218 
3 215 179 180 
3 215 180 216 
3 216 180 217 
3 180 182 217 
3 217 182 218 
3 182 181 218 
3 218 181 179 
3 193 194 219 
3 219 194 220 
3 220 194 221 
3 194 196 221 
3 221 196 222 
3 222 196 195 
3 222 195 193 
3 222 193 219 
3 223 202 224 
3 202 203 224 
3 224 203 205 
3 224 205 225 
3 205 204 225 
3 225 204 223 
3 223 204 202 
3 121 120 227 
3 227 120 226 
3 255 292 257 
3 232 228 229 
3 230 231 226 
3 226 231 227 
3 231 232 227 
3 227 232 229 
3 290 292 255 
3 260 272 296 
3 296 272 245 
3 291 298 0 
3 270 298 291 
3 290 251 293 
3 246 0 298 
3 230 240 231 
3 267 238 240 
3 267 288 238 
3 228 130 138 
3 228 138 229 
3 229 138 242 
3 242 138 136 
3 136 134 317 
3 317 134 132 
3 317 132 243 
3 243 132 244 
3 243 244 299 
3 228 132 130 
3 143 245 246 
3 245 143 151 
3 245 151 249 
3 249 151 149 
3 149 147 318 
3 318 147 145 
3 246 145 143 
3 156 250 251 
3 250 156 164 
3 297 288 267 
3 250 164 253 
3 253 164 162 
3 162 160 302 
3 302 160 324 
3 324 160 158 
3 158 251 254 
3 254 251 255 
3 254 255 256 
3 256 255 257 
3 256 257 258 
3 258 257 177 
3 158 156 251 
3 259 169 177 
3 259 177 257 
3 259 288 297 
3 259 248 288 
3 228 260 296 
3 258 177 175 
3 175 173 263 
3 263 173 171 
3 263 171 264 
3 264 171 265 
3 264 265 266 
3 259 171 169 
3 240 183 191 
3 240 191 267 
3 267 191 268 
3 268 191 189 
3 189 187 312 
3 312 187 185 
3 312 185 313 
3 313 185 183 
3 313 183 304 
3 304 183 230 
3 304 230 122 
3 230 183 240 
3 162 302 253 
3 302 269 253 
3 253 269 273 
3 274 320 145 
3 145 320 318 
3 149 318 249 
3 299 249 275 
3 136 317 242 
3 276 124 229 
3 276 229 242 
3 124 276 125 
3 276 308 125 
3 308 309 125 
3 125 309 315 
3 125 315 129 
3 129 315 127 
3 127 315 277 
3 127 277 314 
3 127 314 122 
3 122 314 304 
3 189 312 268 
3 266 268 278 
3 175 263 258 
3 258 263 311 
3 256 258 279 
3 256 279 254 
3 254 279 323 
3 254 323 324 
3 254 324 158 
3 250 293 251 
3 270 293 250 
3 291 293 270 
3 291 236 293 
3 291 281 236 
3 0 281 291 
3 0 262 281 
3 245 0 246 
3 272 0 245 
3 272 262 0 
3 295 262 272 
3 272 282 295 
3 260 282 272 
3 252 282 260 
3 252 283 282 
3 271 283 252 
3 271 285 283 
3 294 285 271 
3 294 1 285 
3 241 1 294 
3 241 239 1 
3 247 239 241 
3 247 286 239 
3 247 287 286 
3 284 287 247 
3 284 280 287 
3 238 280 284 
3 238 233 280 
3 288 233 238 
3 288 234 233 
3 248 234 288 
3 248 289 234 
3 237 289 248 
3 290 237 292 
3 290 261 237 
3 251 290 255 
3 261 293 235 
3 270 250 253 
3 261 290 293 
3 248 292 237 
3 228 296 244 
3 171 259 265 
3 265 259 297 
3 265 297 266 
3 266 297 267 
3 266 267 268 
3 248 257 292 
3 259 257 248 
3 235 293 236 
3 232 252 260 
3 231 240 238 
3 132 228 244 
3 238 284 231 
3 246 298 274 
3 274 298 273 
3 145 246 274 
3 271 252 232 
3 253 273 270 
3 270 273 298 
3 294 271 232 
3 232 241 294 
3 245 249 296 
3 296 249 299 
3 296 299 244 
3 231 241 232 
3 231 247 241 
3 284 247 231 
3 260 228 232 
3 122 230 112 
3 112 230 120 
3 230 226 120 
3 124 111 229 
3 229 111 121 
3 229 121 227 
3 316 207 242 
3 242 207 208 
3 242 208 321 
3 321 208 224 
3 224 208 223 
3 223 208 206 
3 223 206 209 
3 223 209 212 
3 209 206 211 
3 211 206 299 
3 299 206 300 
3 300 206 316 
3 206 207 316 
3 319 210 211 
3 319 211 275 
3 275 211 299 
3 212 209 301 
3 212 301 310 
3 301 209 320 
3 320 209 210 
3 320 210 319 
3 214 212 302 
3 302 212 310 
3 311 218 303 
3 303 218 213 
3 213 218 215 
3 213 215 212 
3 212 215 219 
3 212 219 223 
3 223 219 220 
3 223 220 304 
3 223 304 305 
3 303 213 323 
3 323 213 324 
3 324 213 302 
3 302 213 214 
3 306 217 311 
3 311 217 218 
3 219 215 266 
3 266 215 307 
3 307 215 216 
3 307 216 306 
3 216 217 306 
3 312 221 222 
3 312 222 278 
3 278 222 219 
3 278 219 266 
3 304 220 313 
3 313 220 221 
3 313 221 312 
3 225 223 322 
3 322 223 305 
3 321 224 308 
3 308 224 309 
3 309 224 322 
3 322 224 225 
3 279 258 303 
3 303 258 311 
3 322 277 315 
3 321 308 276 
3 242 317 316 
3 316 317 300 
3 317 243 300 
3 249 318 319 
3 319 318 320 
3 242 321 276 
3 277 305 314 
3 305 304 314 
3 264 266 307 
3 264 307 263 
3 263 307 306 
3 263 306 311 
3 269 302 310 
3 323 279 303 
3 278 268 312 
3 305 277 322 
3 322 315 309 
3 300 243 299 
3 319 275 249 
3 274 273 301 
3 320 274 301 
3 301 273 310 
3 273 269 310 
3 261 235 330 
3 348 327 341 
3 337 345 334 
3 333 350 331 
3 325 341 345 
3 328 352 344 
3 349 336 347 
3 346 331 339 
3 332 340 327 
3 339 350 349 
3 332 327 348 
3 343 350 338 
3 348 237 332 
3 337 280 325 
3 338 352 345 
3 330 336 340 
3 345 337 325 
3 335 345 341 
3 281 347 236 
3 295 346 262 
3 342 331 346 
3 339 262 346 
3 347 336 236 
3 334 287 337 
3 338 345 335 
3 352 334 345 
3 234 329 233 
3 351 344 352 
3 328 286 334 
3 330 235 336 
3 326 344 333 
3 331 342 326 
3 335 341 327 
3 239 344 1 
3 233 325 280 
3 343 327 340 
3 282 283 342 
3 342 346 282 
3 349 347 339 
3 347 281 339 
3 286 328 239 
3 333 331 326 
3 328 344 239 
3 350 339 331 
3 335 327 343 
3 326 342 283 
3 340 349 343 
3 338 350 351 
3 348 341 329 
3 262 339 281 
3 328 334 352 
3 285 1 326 
3 261 332 237 
3 351 333 344 
3 326 1 344 
3 352 338 351 
3 348 329 289 
3 289 329 234 
3 285 326 283 
3 343 349 350 
3 340 336 349 
3 235 236 336 
3 340 332 330 
3 330 332 261 
3 287 334 286 
3 325 233 329 
3 333 351 350 
3 325 329 341 
3 237 348 289 
3 282 346 295 
3 335 343 338 
3 280 337 287 
