ply
format ascii 1.0
comment meshmixer generated
element vertex 155
property float x
property float y
property float z
property float nx
property float ny
property float nz
property uchar red
property uchar green
property uchar blue
property uchar alpha
element face 236
property list uchar int vertex_indices
end_header
-0.05000000075 1.874852538 0.0001624700672 -0.7037829757 0.7037836909 -0.09684035182 255 255 255 255
-0.05000000075 1.774852633 0.0001624700672 -0.7037829757 -0.7037836909 -0.09684035182 255 255 255 255
-0.05000000075 1.774852633 0.7269080877 -0.1368413568 -0.1368413568 -0.9810957313 255 255 255 255
-0.05000007153 1.870579362 0.7269080877 0 -6.123234263e-17 -1 255 255 255 255
-0.05000000075 1.874852538 0.7269080877 -0.7065825462 0.7065832615 -0.03848626092 255 255 255 255
0.05000000075 1.874852538 0.7269080877 0.4037774801 0.8075557351 -0.4299040735 255 255 255 255
0.05000000075 1.874852538 0.0001624700672 0.8927383423 0.4463695884 -0.06142027676 255 255 255 255
0.05000000075 1.774852633 0.7269080877 0.02214247547 -0.01107123401 -0.9996935129 255 255 255 255
0.05000000075 1.774852633 0.0001624700672 0.4438642859 -0.887729466 -0.1221512184 255 255 255 255
-0.75 1.874852538 0.0001624700672 -0.7063449621 0.7063453794 -0.04640062526 255 255 255 255
-0.75 1.774852633 0.0001624700672 -0.7037829161 -0.7037837505 -0.09684035927 255 255 255 255
-0.75 1.774852633 0.7269080877 -0.463160038 -0.8862746954 5.426867301e-17 255 255 255 255
-0.75 1.774852633 0.7956923842 -0.7604687214 0.6488463879 0.02618536539 255 255 255 255
-0.75 1.774852633 0.8001624942 -0.03005845845 -0.7395479679 0.672432363 255 255 255 255
-0.75 1.845523477 0.8001624942 -0.9983502626 0.05741742626 -3.515803394e-18 255 255 255 255
-0.75 1.874852538 0.8001624942 -0.1707741916 0.5822685361 0.7948581576 255 255 255 255
-0.75 1.874852538 0.7269080877 -0.6352840662 0.5839348435 -0.5054050088 255 255 255 255
-0.6499999762 1.874852538 0.7269080877 -0.000819402514 0.9999996424 -6.123231616e-17 255 255 255 255
-0.6499999762 1.874852538 0.0001624700672 0.8927382827 0.4463696778 -0.06142028794 255 255 255 255
-0.6499999762 1.774852633 0.7269080877 0.8777737617 -0.4790754318 2.933490825e-17 255 255 255 255
-0.6499999762 1.774852633 0.0001624700672 0.4438642263 -0.887729466 -0.1221512258 255 255 255 255
-0.6499999762 1.774852633 0.8001624942 0.3252301812 -0.3252305686 0.8879473209 255 255 255 255
-0.6499999762 1.874852538 0.8001624942 0.763407886 0.3817044199 0.521066308 255 255 255 255
0.6499999762 1.874852538 0.7269080877 0 1 -6.123234263e-17 255 255 255 255
0.6499999762 1.874852538 0.0001620789117 0 -1 6.123234263e-17 255 255 255 255
0.75 1.874852538 0.0001620789117 0 1 -6.123234263e-17 255 255 255 255
0.6499999762 1.874852538 0.800162077 -0.174399972 -0.984674871 6.029394924e-17 255 255 255 255
0.75 1.874852538 0.800162077 0.1336203068 0.974101305 0.1824069023 255 255 255 255
0.75 1.874852538 0.7269080877 0.01052570902 -0.2820232213 -0.9593498111 255 255 255 255
0.75 1.847417951 0.800162077 0.6113507748 4.845680938e-17 0.7913597226 255 255 255 255
0.75 1.774852633 0.800162077 -0.01509514265 -0.0550221391 0.9983710051 255 255 255 255
0.75 1.774852633 0.7961628437 -0.16003488 -0.5833307505 -0.796312809 255 255 255 255
0.7003475428 1.874852538 0.3639851809 0 -1 6.123234263e-17 255 255 255 255
-0.75 0.6548526287 0.0001624700672 -0.8964790702 0.4272041619 -0.1175663844 255 255 255 255
-0.75 0.5548526049 0.0001624700672 -0.7037833333 -0.7037833333 -0.09684041888 255 255 255 255
-0.75 0.5548526049 0.7269080877 -0.463832587 -0.8859228492 5.424712992e-17 255 255 255 255
-0.75 0.5548526049 0.7611503601 -1 0 0 255 255 255 255
-0.75 0.5548526049 0.8001624942 -1 0 0 255 255 255 255
-0.75 0.6548526287 0.8001624942 -1 0 0 255 255 255 255
-0.75 0.6548525095 0.7642351985 -1 0 0 255 255 255 255
-0.75 0.6548526287 0.7269080877 -9.673492229e-08 0.1474341899 -0.989071846 255 255 255 255
-0.6499999762 0.6548526287 0.7269080877 0.7071067691 0.7071067691 -4.329780302e-17 255 255 255 255
-0.6499999762 0.6548526287 0.0001624700672 0.7062715292 0.7062715292 -0.0485913977 255 255 255 255
-0.6499999762 0.5548526049 0.7269080877 0.8944271803 -0.4472135901 2.738393495e-17 255 255 255 255
-0.6499999762 0.5548526049 0.0001624700672 0.4438646436 -0.8877292871 -0.1221513376 255 255 255 255
-0.75 -0.6551474333 0.0001624700672 0.0001753139077 1 2.412315916e-05 255 255 255 255
-0.75 -0.6551474333 0.7269080877 -0.5140638351 -0.8554737568 -0.06247408688 255 255 255 255
-0.75 -0.6551474333 0.7775323987 -1 5.203411804e-16 -3.186170679e-32 255 255 255 255
-0.75 -0.6551474333 0.8001624942 -0.1795904636 -0.5813419223 0.7935923338 255 255 255 255
-0.699731648 -0.6551474929 0.3639014065 -3.986126793e-17 0.9978618622 -0.06535867602 255 255 255 255
-0.75 -0.5551475286 0.7269080877 -0.0922107622 0.1551320106 -0.9835808277 255 255 255 255
-0.6499999762 -0.6551474333 0.7269080877 0.6741254926 -0.7346082926 -0.07684714347 255 255 255 255
-0.6499999762 -0.6551474333 0.0001624700672 -5.575832915e-07 -1 7.672336011e-08 255 255 255 255
-0.6499999762 -0.5551475286 0.8001624942 -1.196971375e-16 1 -1.096726407e-07 255 255 255 255
-0.6499999762 -0.6551474333 0.8001624942 0.508754909 -0.5087555051 0.6945043206 255 255 255 255
0.75 0.5548526049 0.0001620789117 0.7214741707 -0.6862691641 -0.09224757552 255 255 255 255
0.6499999762 0.5548526049 0.7269080877 -0.4472140074 -0.8944270015 5.476785004e-17 255 255 255 255
0.6499999762 0.6548526287 0.7269080877 -0.7071067691 0.7071067691 -4.329780302e-17 255 255 255 255
0.6499999762 0.6548526287 0.0001620789117 -0.6940872669 0.6940872669 -0.1910124421 255 255 255 255
0.75 0.6548526287 0.0001620789117 0.4553264081 0.8883287311 -0.05958100408 255 255 255 255
0.6499999762 0.6548526287 0.800162077 -0.5087536573 0.5087536573 0.6945065856 255 255 255 255
0.75 0.6548526287 0.800162077 0.1551931798 0.4728782773 0.8673529625 255 255 255 255
0.75 0.6548526287 0.7643765807 0.8944271803 0.4472135901 -2.738393495e-17 255 255 255 255
0.75 0.5548526049 0.800162077 0.9842265248 -0.1320246011 0.1177607551 255 255 255 255
0.6499999762 0.5548526049 0.0001620789117 -0.8927385211 -0.4463692605 -0.06142029166 255 255 255 255
0.75 0.5548524857 0.7613033056 1.040288515e-12 -1 6.123232278e-17 255 255 255 255
0.6499999762 0.5548526049 0.800162077 -0.5667257905 -0.2833628953 0.7736455202 255 255 255 255
0.75 -0.6551474333 0.7512840033 0.6755021811 -0.7373579741 4.515015488e-17 255 255 255 255
0.75 -0.6551474333 0.0001627774036 0.7101456523 -0.6976948977 -0.09441909939 255 255 255 255
0.6499999762 -0.5551475286 0.7269081473 -0.707106173 0.7071073651 -4.329783941e-17 255 255 255 255
0.6499999762 -0.5551475286 0.0001627774036 -0.6940866709 0.694087863 -0.191012457 255 255 255 255
0.75 -0.5551475286 0.0001627774036 0.4527352154 0.889616251 -0.06011455879 255 255 255 255
0.6499999762 -0.5551475286 0.8001627922 -0.5087555647 0.5087563992 0.6945031881 255 255 255 255
0.75 -0.5551475286 0.8001627922 0.1969946176 0.5048267841 0.8404421806 255 255 255 255
0.75 -0.5551475286 0.7532839775 0.8944268823 0.4472141862 -2.738397134e-17 255 255 255 255
0.6499999762 -0.6551474333 0.8001627922 -0.5301157236 -0.4419171214 0.7236619592 255 255 255 255
0.75 -0.6551474333 0.8001627922 0.6521722078 -0.3328972161 0.6810659766 255 255 255 255
0.6499999762 -0.6551474333 0.7269081473 -0.4583804607 -0.8887560964 5.442061286e-17 255 255 255 255
0.6499999762 -0.6551474333 0.0001627774036 -0.8927382231 -0.4463698566 -0.06142032519 255 255 255 255
-0.75 1.876061559 0.7269080877 -0.0004029937554 0.9999674559 -0.00805986952 255 255 255 255
-0.75 1.784009337 0.7269080877 -0.09935700893 -6.09293563e-17 -0.9950518608 255 255 255 255
-0.75 0.564009428 0.7269080877 -0.09338603914 -6.096475301e-17 -0.9956299663 255 255 255 255
0.75 1.876061559 0.7269080877 0.006883060094 0.9960202575 -0.08886121958 255 255 255 255
0.6499999762 -0.6551474929 0.0001627774036 -0.8930329084 -0.4465164542 -0.05581456795 255 255 255 255
0.6499999762 -0.6551474929 0.8001627922 -0.4444444478 -0.8888888955 0.1111111343 255 255 255 255
0.6499999762 -0.555147469 0.8001627922 -0.8930329084 0.4465164542 0.05581456795 255 255 255 255
0.6499999762 -0.555147469 0.0001627774036 -0.4444444478 0.8888888955 -0.1111111343 255 255 255 255
0.75 -0.555147469 0.8001627922 0.4444444478 0.8888888955 0.1111111343 255 255 255 255
0.75 -0.555147469 0.0001627774036 0.8930329084 0.4465164542 -0.05581456795 255 255 255 255
0.75 -0.6551474929 0.8001627922 0.8930329084 -0.4465164542 0.05581456795 255 255 255 255
0.75 -0.6551474929 0.0001627774036 0.4444444478 -0.8888888955 -0.1111111343 255 255 255 255
0.6499999762 0.5548525453 0.0001621068513 -0.8930329084 -0.4465164542 -0.05581457168 255 255 255 255
0.6499999762 0.5548525453 0.800162077 -0.4444444478 -0.8888888955 0.1111111417 255 255 255 255
0.6499999762 0.6548525691 0.800162077 -0.8930329084 0.4465164542 0.05581457168 255 255 255 255
0.6499999762 0.6548525691 0.0001621068513 -0.4444444478 0.8888888955 -0.1111111417 255 255 255 255
0.75 0.6548525691 0.800162077 0.4444444478 0.8888888955 0.1111111417 255 255 255 255
0.75 0.6548525691 0.0001621068513 0.8930329084 0.4465164542 -0.05581457168 255 255 255 255
0.75 0.5548525453 0.800162077 0.8930329084 -0.4465164542 0.05581457168 255 255 255 255
0.75 0.5548525453 0.0001621068513 0.4444444478 -0.8888888955 -0.1111111417 255 255 255 255
0.6499999762 -1.873975754 0.0001624700672 -0.8930327296 -0.4465168715 -0.05581455678 255 255 255 255
0.6499999762 -1.873975754 0.8001624942 -0.4444440305 -0.8888891339 0.11111103 255 255 255 255
0.6499999762 -1.773975849 0.8001624942 -0.8930327296 0.4465168715 0.05581455678 255 255 255 255
0.6499999762 -1.773975849 0.0001624700672 -0.4444440305 0.8888891339 -0.11111103 255 255 255 255
0.75 -1.773975849 0.8001624942 0.4444440305 0.8888891339 0.11111103 255 255 255 255
0.75 -1.773975849 0.0001624700672 0.8930327296 0.4465168715 -0.05581455678 255 255 255 255
0.75 -1.873975754 0.8001624942 0.8930327296 -0.4465168715 0.05581455678 255 255 255 255
0.75 -1.873975754 0.0001624700672 0.4444440305 -0.8888891339 -0.11111103 255 255 255 255
-0.75 -0.6551474929 0.0001624700672 -0.8930329084 -0.4465164542 -0.05581456795 255 255 255 255
-0.75 -0.6551474929 0.8001624942 -0.4444444478 -0.8888888955 0.1111111343 255 255 255 255
-0.75 -0.555147469 0.8001624942 -0.8930329084 0.4465164542 0.05581456795 255 255 255 255
-0.75 -0.555147469 0.0001624700672 -0.4444444478 0.8888888955 -0.1111111343 255 255 255 255
-0.6499999762 -0.555147469 0.8001624942 0.4444444478 0.8888888955 0.1111111343 255 255 255 255
-0.6499999762 -0.555147469 0.0001624700672 0.8930329084 0.4465164542 -0.05581456795 255 255 255 255
-0.6499999762 -0.6551474929 0.8001624942 0.8930329084 -0.4465164542 0.05581456795 255 255 255 255
-0.6499999762 -0.6551474929 0.0001624700672 0.4444444478 -0.8888888955 -0.1111111343 255 255 255 255
-0.75 0.5548525453 0.0001624700672 -0.8930329084 -0.4465164542 -0.05581456795 255 255 255 255
-0.75 0.5548525453 0.8001624942 -0.4444444478 -0.8888888955 0.1111111343 255 255 255 255
-0.75 0.6548525691 0.8001624942 -0.8930329084 0.4465164542 0.05581456795 255 255 255 255
-0.75 0.6548525691 0.0001624700672 -0.4444444478 0.8888888955 -0.1111111343 255 255 255 255
-0.6499999762 0.6548525691 0.8001624942 0.4444444478 0.8888888955 0.1111111343 255 255 255 255
-0.6499999762 0.6548525691 0.0001624700672 0.8930329084 0.4465164542 -0.05581456795 255 255 255 255
-0.6499999762 0.5548525453 0.8001624942 0.8930329084 -0.4465164542 0.05581456795 255 255 255 255
-0.6499999762 0.5548525453 0.0001624700672 0.4444444478 -0.8888888955 -0.1111111343 255 255 255 255
-0.75 -1.873975754 0.0001621068513 -0.8930327296 -0.4465168715 -0.05581455678 255 255 255 255
-0.75 -1.873975754 0.800162077 -0.4444440305 -0.8888891339 0.1111110374 255 255 255 255
-0.75 -1.773975849 0.800162077 -0.8930327296 0.4465168715 0.05581455678 255 255 255 255
-0.75 -1.773975849 0.0001621068513 -0.4444440305 0.8888891339 -0.1111110374 255 255 255 255
-0.6499999762 -1.773975849 0.800162077 0.4444440305 0.8888891339 0.1111110374 255 255 255 255
-0.6499999762 -1.773975849 0.0001621068513 0.8930327296 0.4465168715 -0.05581455678 255 255 255 255
-0.6499999762 -1.873975754 0.800162077 0.8930327296 -0.4465168715 0.05581455678 255 255 255 255
-0.6499999762 -1.873975754 0.0001621068513 0.4444440305 -0.8888891339 -0.1111110374 255 255 255 255
0.6499999762 1.774852514 0.0001621068513 -0.8930327296 -0.4465168715 -0.05581455678 255 255 255 255
0.6499999762 1.774852514 0.800162077 -0.4444440305 -0.8888891339 0.1111110374 255 255 255 255
0.6499999762 1.874852419 0.800162077 -0.8930327296 0.4465168715 0.05581455678 255 255 255 255
0.6499999762 1.874852419 0.0001621068513 -0.4444440305 0.8888891339 -0.1111110374 255 255 255 255
0.75 1.874852419 0.800162077 0.4444440305 0.8888891339 0.1111110374 255 255 255 255
0.75 1.874852419 0.0001621068513 0.8930327296 0.4465168715 -0.05581455678 255 255 255 255
0.75 1.774852514 0.800162077 0.8930327296 -0.4465168715 0.05581455678 255 255 255 255
0.75 1.774852514 0.0001621068513 0.4444440305 -0.8888891339 -0.1111110374 255 255 255 255
-0.75 1.774852514 0.0001624700672 -0.8930327296 -0.4465168715 -0.05581455678 255 255 255 255
-0.75 1.774852514 0.8001624942 -0.4444440305 -0.8888891339 0.11111103 255 255 255 255
-0.75 1.874852419 0.8001624942 -0.8930327296 0.4465168715 0.05581455678 255 255 255 255
-0.75 1.874852419 0.0001624700672 -0.4444440305 0.8888891339 -0.11111103 255 255 255 255
-0.6499999762 1.874852419 0.8001624942 0.4444440305 0.8888891339 0.11111103 255 255 255 255
-0.6499999762 1.874852419 0.0001624700672 0.8930327296 0.4465168715 -0.05581455678 255 255 255 255
-0.6499999762 1.774852514 0.8001624942 0.8930327296 -0.4465168715 0.05581455678 255 255 255 255
-0.6499999762 1.774852514 0.0001624700672 0.4444440305 -0.8888891339 -0.11111103 255 255 255 255
-0.05000000075 1.774852514 0.0001624700672 -0.8930327296 -0.4465168118 -0.0558145456 255 255 255 255
-0.05000000075 1.774852514 0.8001624942 -0.4444440901 -0.8888890743 0.1111110225 255 255 255 255
-0.05000000075 1.874852419 0.8001624942 -0.8930327296 0.4465168118 0.0558145456 255 255 255 255
-0.05000000075 1.874852419 0.0001624700672 -0.4444440901 0.8888890743 -0.1111110225 255 255 255 255
0.05000000075 1.874852419 0.8001624942 0.4444440901 0.8888890743 0.1111110225 255 255 255 255
0.05000000075 1.874852419 0.0001624700672 0.8930327296 0.4465168118 -0.0558145456 255 255 255 255
0.05000000075 1.774852514 0.8001624942 0.8930327296 -0.4465168118 0.0558145456 255 255 255 255
0.05000000075 1.774852514 0.0001624700672 0.4444440901 -0.8888890743 -0.1111110225 255 255 255 255
3 0 1 2 
3 2 3 4 
3 2 4 0 
3 0 4 5 
3 0 5 6 
3 6 5 7 
3 6 7 8 
3 8 7 2 
3 8 2 1 
3 0 6 8 
3 0 8 1 
3 9 10 11 
3 12 13 14 
3 9 11 12 
3 65 63 56 
3 65 56 55 
3 17 9 12 
3 17 18 9 
3 12 14 17 
3 18 17 19 
3 18 19 20 
3 20 19 11 
3 20 11 10 
3 9 18 20 
3 9 20 10 
3 21 22 15 
3 14 13 21 
3 15 14 21 
3 64 55 56 
3 78 68 77 
3 25 24 23 
3 23 26 27 
3 28 25 23 
3 23 27 28 
3 67 75 77 
3 28 27 29 
3 29 30 31 
3 67 77 68 
3 28 29 31 
3 25 28 32 
3 29 27 26 
3 23 32 26 
3 26 30 29 
3 33 34 35 
3 36 37 38 
3 33 35 36 
3 36 38 39 
3 36 39 33 
3 40 41 42 
3 40 42 33 
3 40 33 39 
3 39 38 40 
3 42 41 43 
3 42 43 44 
3 44 43 35 
3 44 35 34 
3 33 42 44 
3 33 44 34 
3 45 46 49 
3 52 51 46 
3 52 46 45 
3 51 49 53 
3 51 52 49 
3 45 49 52 
3 53 48 54 
3 56 63 66 
3 57 56 66 
3 59 58 57 
3 57 60 61 
3 62 59 57 
3 57 61 62 
3 61 66 63 
3 58 55 64 
3 58 59 55 
3 62 63 55 
3 63 65 55 
3 62 61 63 
3 61 60 66 
3 55 59 62 
3 67 76 75 
3 69 75 72 
3 71 70 69 
3 69 72 73 
3 74 71 69 
3 69 73 74 
3 69 77 75 
3 74 73 76 
3 73 75 76 
3 73 72 75 
3 70 68 78 
3 70 71 68 
3 74 76 67 
3 67 68 74 
3 16 79 82 
3 4 3 16 
3 4 16 82 
3 82 5 4 
3 68 71 74 
3 78 69 70 
3 78 77 69 
3 64 57 58 
3 57 66 60 
3 64 56 57 
3 47 53 46 
3 51 53 54 
3 48 53 47 
3 46 53 49 
3 47 46 51 
3 51 54 48 
3 51 48 47 
3 35 37 36 
3 25 32 24 
3 23 24 32 
3 28 26 32 
3 30 26 31 
3 28 31 26 
3 19 17 22 
3 19 22 21 
3 15 17 14 
3 17 15 22 
3 12 11 19 
3 19 21 13 
3 19 13 12 
3 80 16 3 
3 80 3 2 
3 7 81 2 
3 80 2 81 
3 50 81 7 
3 83 84 85 
3 83 85 86 
3 86 85 87 
3 86 87 88 
3 88 87 89 
3 88 89 90 
3 90 89 84 
3 90 84 83 
3 86 88 90 
3 86 90 83 
3 87 85 84 
3 87 84 89 
3 91 92 93 
3 91 93 94 
3 94 93 95 
3 94 95 96 
3 96 95 97 
3 96 97 98 
3 98 97 92 
3 98 92 91 
3 94 96 98 
3 94 98 91 
3 95 93 92 
3 95 92 97 
3 99 100 101 
3 99 101 102 
3 102 101 103 
3 102 103 104 
3 104 103 105 
3 104 105 106 
3 106 105 100 
3 106 100 99 
3 102 104 106 
3 102 106 99 
3 103 101 100 
3 103 100 105 
3 107 108 109 
3 107 109 110 
3 110 109 111 
3 110 111 112 
3 112 111 113 
3 112 113 114 
3 114 113 108 
3 114 108 107 
3 110 112 114 
3 110 114 107 
3 111 109 108 
3 111 108 113 
3 115 116 117 
3 115 117 118 
3 118 117 119 
3 118 119 120 
3 120 119 121 
3 120 121 122 
3 122 121 116 
3 122 116 115 
3 118 120 122 
3 118 122 115 
3 119 117 116 
3 119 116 121 
3 123 124 125 
3 123 125 126 
3 126 125 127 
3 126 127 128 
3 128 127 129 
3 128 129 130 
3 130 129 124 
3 130 124 123 
3 126 128 130 
3 126 130 123 
3 127 125 124 
3 127 124 129 
3 131 132 133 
3 131 133 134 
3 134 133 135 
3 134 135 136 
3 136 135 137 
3 136 137 138 
3 138 137 132 
3 138 132 131 
3 134 136 138 
3 134 138 131 
3 135 133 132 
3 135 132 137 
3 139 140 141 
3 139 141 142 
3 142 141 143 
3 142 143 144 
3 144 143 145 
3 144 145 146 
3 146 145 140 
3 146 140 139 
3 142 144 146 
3 142 146 139 
3 143 141 140 
3 143 140 145 
3 147 148 149 
3 147 149 150 
3 150 149 151 
3 150 151 152 
3 152 151 153 
3 152 153 154 
3 154 153 148 
3 154 148 147 
3 150 152 154 
3 150 154 147 
3 151 149 148 
3 151 148 153 
